<svg xmlns="http://www.w3.org/2000/svg" width="90" height="24" fill="none"><path fill="#0F1016" d="m21.325 12.074-1.729-.934a1.612 1.612 0 0 0-.096-.048l-.008-.004-.023-.01a1.805 1.805 0 0 0-.108-.043l-.019-.007a1.803 1.803 0 0 0-.094-.03l-.03-.008h.002l-.026-.007a1.64 1.64 0 0 0-.093-.021l-2.307-.461 3.162-3.435c.39-.423.618-.965.644-1.527.027-.583-.167-1.12-.546-1.51-.125-.13-.27-.24-.428-.326l-1.729-.934-.06-.031-.012-.006-.002-.001a2.261 2.261 0 0 0-.065-.03l-.022-.009-.054-.02-.027-.01a1.775 1.775 0 0 0-.054-.019l-.026-.008a1.934 1.934 0 0 0-.075-.021l-.011-.003a1.81 1.81 0 0 0-.093-.02l-.062-.012a.73.73 0 0 0-.028-.004l-.057-.007-.027-.002a1.35 1.35 0 0 0-.165-.009h-.024c-.02 0-.04 0-.061.002h-.028l-.059.005-.025.002a1.543 1.543 0 0 0-.166.024l-.027.005-.058.012-.03.007-.056.015-.03.008a2.02 2.02 0 0 0-.058.018l-.024.008a2.82 2.82 0 0 0-.161.062l-.034.015-.028.012-.02.01-.036.018-.045.023-.038.02-.044.026-.037.022a1.92 1.92 0 0 0-.043.027l-.037.024h.002l-.02.012-.025.018-.026.018a2.387 2.387 0 0 0-.07.053l-.013.01a2.3 2.3 0 0 0-.056.048l-.021.018-.022.019a1.94 1.94 0 0 0-.075.071l-.005.005-.021.02c-.03.03-.057.059-.082.086l-2.197 2.428-.463-2.297a1.858 1.858 0 0 0-.923-1.284l-1.729-.934-.058-.03-.015-.008a2.087 2.087 0 0 0-.064-.028l-.025-.01a1.274 1.274 0 0 0-.052-.022l-.028-.01a1.33 1.33 0 0 0-.058-.02l-.02-.006a1.693 1.693 0 0 0-.07-.02h-.001l-.025-.006a1.06 1.06 0 0 0-.143-.03l-.029-.004a1.133 1.133 0 0 0-.057-.007l-.025-.003a1.986 1.986 0 0 0-.082-.006h-.012A2.273 2.273 0 0 0 9.307 1H9.28c-.029 0-.058 0-.087.002l-.059.004-.026.003a2.056 2.056 0 0 0-.625.164l-.014.006a1.186 1.186 0 0 0-.038.018l-.018.008a.621.621 0 0 0-.027.013l-.004.002a1.574 1.574 0 0 0-.142.079l-.034.02-.054.034-.038.025c-.035.025-.07.05-.104.077l-.005.004-.023.018a2.731 2.731 0 0 0-.093.077l-.004.004-.019.017a2.293 2.293 0 0 0-.181.183l-.012.015a2.421 2.421 0 0 0-.075.09l-.01.013-.062.082-.013.017a1.746 1.746 0 0 0-.071.108l-.014.022c-.022.035-.042.07-.062.106l-.009.016-.02.038-.006.013-.011.021a2.434 2.434 0 0 0-.04.087l-.007.012a2.442 2.442 0 0 0-.033.077l-.015.038-.014.037-.015.044-.022.065-.008.027-.024.081-.002.009-.022.091-.006.027-.013.067-.005.03-.011.075-.003.018a1.97 1.97 0 0 0-.01.093l-.001.025a2.279 2.279 0 0 0-.004.07l-.001.032-.001.07V3.4l.003.097.002.016c.002.036.006.072.01.109l.009.07.004.028.018.095 1.017 4.802-4.51-.954a1.839 1.839 0 0 0-.724-.008l-.023.005h-.004a2.05 2.05 0 0 0-.05.01l-.025.006-.01.002-.042.01-.026.008-.01.003-.04.011-.026.009-.008.002a1.388 1.388 0 0 0-.04.014l-.028.01-.008.002-.038.015-.03.012-.003.001-.04.017a1.15 1.15 0 0 0-.035.016l-.02.008-.018.009-.044.022-.005.002-.025.013-.053.028-.003.002-.02.011-.075.045-.01.007a1.89 1.89 0 0 0-.058.038l-.008.006a2.314 2.314 0 0 0-.112.081l-.028.02-.009.01a2.49 2.49 0 0 0-.074.062l-.012.01-.01.01c-.027.024-.054.05-.082.078l-.018.018a2.865 2.865 0 0 0-.078.082l-.008.01s-.01.01-.013.015a3.501 3.501 0 0 0-.07.082l-.01.012a2.263 2.263 0 0 0-.08.108l-.01.016a2.603 2.603 0 0 0-.068.1l-.01.019a2.875 2.875 0 0 0-.065.11l-.006.01-.005.01-.008.017-.026.048-.011.024-.007.014-.02.042a.593.593 0 0 0-.011.027l-.006.013-.017.04-.012.03-.005.014-.015.037-.004.01-.007.02c-.017.047-.031.09-.044.131-.294.974.06 1.957.862 2.39l1.73.934c.154.084.321.144.494.178l2.307.462-3.161 3.434-.029.032c-.025.029-.05.058-.073.087l-.003.005c-.033.04-.065.082-.096.125l-.006.01a2.18 2.18 0 0 0-.07.104l-.014.023-.004.007a2.266 2.266 0 0 0-.061.106l-.027.052-.029.058-.014.031-.029.064-.01.026a2.06 2.06 0 0 0-.034.087l-.006.016a.869.869 0 0 0-.026.077l-.008.024-.022.075-.004.016-.023.09-.004.021a2.55 2.55 0 0 0-.014.071l-.005.026-.014.09-.002.008a3.07 3.07 0 0 0-.009.084l-.002.026a2.303 2.303 0 0 0-.006.073v.02l-.003.09v.02l.002.074.001.026.005.082.001.01.01.09.004.025.011.07.004.022.019.089.004.015c.006.025.012.05.02.075l.007.025c.007.024.014.048.023.073l.005.015c.01.028.02.057.032.086l.01.022c.024.058.05.116.08.171l.006.011.04.07.014.023c.033.053.068.105.106.155l.014.018.065.079c.139.16.305.294.492.395l1.73.934a1.805 1.805 0 0 0 1.12.194 2.22 2.22 0 0 0 1.324-.723l2.17-2.398.433 2.266a1.86 1.86 0 0 0 .926 1.304l1.73.933a1.81 1.81 0 0 0 1.118.196c.144-.02.285-.056.422-.106a2.35 2.35 0 0 0 1.228-1.069c.281-.5.376-1.07.27-1.6l-.977-4.842 4.517.954a1.844 1.844 0 0 0 .646.021c.846-.118 1.596-.796 1.864-1.688.295-.975-.06-1.957-.861-2.39l-.002-.004Z"/><path fill="#EDEDE9" d="M10.81 2.416c.717-.1 1.358.346 1.512 1.105l1.07 5.307a.114.114 0 0 0 .13.096.15.15 0 0 0 .09-.05l3.916-4.327a1.74 1.74 0 0 1 1.038-.573c.419-.059.837.064 1.14.379.597.616.544 1.688-.106 2.394L15.592 11.1c-.078.085-.05.218.048.238l5.09 1.017c.825.165 1.275 1.053.998 1.971-.225.744-.829 1.267-1.477 1.357-.16.023-.323.018-.481-.015l-5.002-1.057c-.123.01-.19.1-.173.19l1.07 5.308c.176.872-.36 1.827-1.197 2.134a1.55 1.55 0 0 1-.323.082c-.721.1-1.367-.353-1.514-1.121l-1.016-5.307a.115.115 0 0 0-.131-.097.15.15 0 0 0-.09.05l-3.913 4.325a1.74 1.74 0 0 1-1.039.573 1.31 1.31 0 0 1-1.14-.38c-.597-.616-.543-1.688.106-2.393l4.008-4.355c.078-.085.052-.218-.047-.238l-5.09-1.017c-.826-.165-1.275-1.053-.998-1.971.225-.744.829-1.267 1.476-1.357.16-.023.324-.018.482.015l4.999 1.056c.124-.01.191-.101.173-.19L9.294 4.646c-.185-.875.351-1.84 1.194-2.15a1.58 1.58 0 0 1 .323-.081Z"/><path fill="#0F1016" d="M31.276 2.641h-2.785v18.396H40.44v-.657c0-.41-.164-.802-.454-1.092a1.553 1.553 0 0 0-1.097-.452h-7.611V2.64Zm23.774 9.936c-.243-1.68-.991-3.105-2.16-4.119-1.163-1.006-2.656-1.538-4.322-1.538-4.057 0-7.236 3.144-7.236 7.157 0 4.014 3.137 7.098 7.297 7.098 2.243 0 4.323-.872 6.016-2.523l.124-.12-1.04-2.447-.268.306c-1.379 1.569-2.994 2.363-4.802 2.363-1.912 0-3.482-.936-4.253-2.52L55.08 12.79l-.03-.212Zm-3.07-1.314-8.054 2.583c.114-2.544 2.1-4.505 4.613-4.505 1.553 0 2.845.73 3.441 1.922Zm17.61-8.199h-2.618v4.154h-6.649V3.064h-2.618v4.154h-1.956V9.64h1.956v7.366c0 1.246.386 2.289 1.117 3.014.72.716 1.744 1.094 2.96 1.094.953 0 1.805-.238 2.244-.442l.148-.068v-2.505l-.364.17a4.98 4.98 0 0 1-1.817.394c-1.077 0-1.67-.642-1.67-1.808V9.64h6.65v7.366c0 1.247.386 2.29 1.116 3.015.721.716 1.745 1.094 2.96 1.094.953 0 1.805-.238 2.245-.442l.148-.069V18.1l-.365.169a4.981 4.981 0 0 1-1.817.394c-1.077 0-1.67-.642-1.67-1.807V9.638h3.852V7.217h-3.851V3.063v.001Zm16.971 13.327c-1.378 1.568-2.993 2.363-4.801 2.363-1.912 0-3.482-.937-4.254-2.52l10.676-3.445-.031-.213c-.244-1.68-.992-3.105-2.161-4.118-1.162-1.006-2.656-1.538-4.321-1.538-4.058 0-7.237 3.144-7.237 7.157s3.138 7.098 7.297 7.098c2.243 0 4.323-.872 6.016-2.523l.125-.121-1.04-2.447-.269.307Zm-1.48-5.128-8.055 2.583c.114-2.544 2.1-4.504 4.613-4.504 1.553 0 2.846.729 3.442 1.92Z"/></svg>